{"title":"Hotel Transylvania 3 Summer Vacation 2018 720p HDCAM x264 [MW]","magnet":"magnet:?xt=urn:btih:4e78a86d1777d15d38c81ca8c1f2bd41c4c2fe56&dn=Hotel+Transylvania+3+Summer+Vacation+2018+720p+HDCAM+x264+%5BMW%5D&tr=udp%3A%2F%2Ftracker.leechers-paradise.org%3A6969&tr=udp%3A%2F%2Fzer0day.ch%3A1337&tr=udp%3A%2F%2Fopen.demonii.com%3A1337&tr=udp%3A%2F%2Ftracker.coppersurfer.tk%3A6969&tr=udp%3A%2F%2Fexodus.desync.com%3A6969","uploader":"MFreaky","categoryP":"video","categoryS":"movies","size":"891341811","seeders":"11","leechers":"39","description":" <a href=\"https://pichub.site/image/a69Nk\" rel=\"nofollow\" target=\"_NEW\">https://pichub.site/image/a69Nk</a> <a href=\"\nhttps://pichub.site/image/a6HZQ\" rel=\"nofollow\" target=\"_NEW\">\nhttps://pichub.site/image/a6HZQ</a> <a href=\"\nhttps://pichub.site/image/a6QBd\" rel=\"nofollow\" target=\"_NEW\">\nhttps://pichub.site/image/a6QBd</a> <a href=\"\nhttps://pichub.site/image/a6FOv\" rel=\"nofollow\" target=\"_NEW\">\nhttps://pichub.site/image/a6FOv</a> <a href=\"\nhttps://pichub.site/image/a6jhR\" rel=\"nofollow\" target=\"_NEW\">\nhttps://pichub.site/image/a6jhR</a>\r\n\r\nGeneral\r\nFormat                                   : Matroska\r\nFormat version                           : Version 4 / Version 2\r\nFile size                                : 850 MiB\r\nDuration                                 : 1 h 27 min\r\nOverall bit rate                         : 1 358 kb/s\r\n\r\nVideo\r\nID                                       : 1\r\nFormat                                   : AVC\r\nFormat/Info                              : Advanced Video Codec\r\nFormat profile                           : High@L4.1\r\nFormat settings                          : CABAC / 4 Ref Frames\r\nFormat settings, CABAC                   : Yes\r\nFormat settings, RefFrames               : 4 frames\r\nCodec ID                                 : V_MPEG4/ISO/AVC\r\nDuration                                 : 1 h 27 min\r\nBit rate                                 : 1 200 kb/s\r\nWidth                                    : 1 280 pixels\r\nHeight                                   : 650 pixels\r\nDisplay aspect ratio                     : 1.969\r\nFrame rate mode                          : Constant\r\nFrame rate                               : 30.000 FPS\r\nColor space                              : YUV\r\nChroma subsampling                       : 4:2:0\r\nBit depth                                : 8 bits\r\nScan type                                : Progressive\r\nBits/(Pixel*Frame)                       : 0.048\r\nStream size                              : 748 MiB (88%)\r\nWriting library                          : x264 core 155 r2901 7d0ff22\r\nDefault                                  : Yes\r\nForced                                   : No\r\n\r\nAudio\r\nID                                       : 2\r\nFormat                                   : AAC\r\nFormat/Info                              : Advanced Audio Codec\r\nFormat profile                           : LC\r\nCodec ID                                 : A_AAC-2\r\nDuration                                 : 1 h 27 min\r\nBit rate                                 : 161 kb/s\r\nChannel(s)                               : 2 channels\r\nChannel positions                        : Front: L R\r\nSampling rate                            : 48.0 kHz\r\nFrame rate                               : 46.875 FPS (1024 SPF)\r\nCompression mode                         : Lossy\r\nDelay relative to video                  : -21 ms\r\nStream size                              : 101 MiB (12%)\r\nLanguage                                 : English\r\nDefault                                  : Yes\r\nForced                                   : No","last_updated":"2018-07-17T12:04:56.835Z","parsed":{"xt":"urn:btih:4e78a86d1777d15d38c81ca8c1f2bd41c4c2fe56","dn":"Hotel Transylvania 3 Summer Vacation 2018 720p HDCAM x264 [MW]","tr":["udp://exodus.desync.com:6969","udp://open.demonii.com:1337","udp://tracker.coppersurfer.tk:6969","udp://tracker.leechers-paradise.org:6969","udp://zer0day.ch:1337"],"infoHash":"4e78a86d1777d15d38c81ca8c1f2bd41c4c2fe56","infoHashBuffer":{"type":"Buffer","data":[78,120,168,109,23,119,209,93,56,200,28,168,193,242,189,65,196,194,254,86]},"name":"Hotel Transylvania 3 Summer Vacation 2018 720p HDCAM x264 [MW]","announce":["udp://exodus.desync.com:6969","udp://open.demonii.com:1337","udp://tracker.coppersurfer.tk:6969","udp://tracker.leechers-paradise.org:6969","udp://zer0day.ch:1337"],"urlList":[]}}